# xmcd CD database file
#
# Track frame offsets:
#	150
#	13723
#	26130
#	37775
#	50550
#	62630
#	73843
#	85745
#	97563
#	111305
#	125795
#	137445
#
# Disc length: 1982 seconds
#
# Revision: 0
# Processed by: cddbd v1.4PL0 Copyright (c) Steve Scherf et al.
# Submitted via: NeoAudio 9.9.9
#
DISCID=9b07bc0c
DTITLE=Four Tops - Reach Out
DYEAR=1967
DGENRE=Rhythmic Soul
TTITLE0=Reach out I´ll be there
TTITLE1=Walk away Renee
TTITLE2=7-rooms of gloom
TTITLE3=If I were a carpenter
TTITLE4=Last train to Clarksville
TTITLE5=I´ll turn to stone
TTITLE6=I´m a believer
TTITLE7=Standing in the shadows of love
TTITLE8=Bernadette
TTITLE9=Cherish
TTITLE10=Wonderful baby
TTITLE11=What else is there to do (But think about you)
EXTD=YEAR: 1967
EXTT0=
EXTT1=
EXTT2=
EXTT3=
EXTT4=
EXTT5=
EXTT6=
EXTT7=
EXTT8=
EXTT9=
EXTT10=
EXTT11=
PLAYORDER=
